<svg xmlns="http://www.w3.org/2000/svg" width="113.488" height="21.81" viewBox="0 0 113.488 21.81">
  <g id="그룹_472" data-name="그룹 472" transform="translate(-3.512 -7.095)">
    <path id="패스_320" data-name="패스 320" d="M13.172,7.095a8.929,8.929,0,0,1,3.42.585,6.416,6.416,0,0,1,2.3,1.545,5.949,5.949,0,0,1,1.29,2.19,8.2,8.2,0,0,1,0,5.085,5.929,5.929,0,0,1-1.29,2.2,6.416,6.416,0,0,1-2.3,1.545,8.929,8.929,0,0,1-3.42.585H8.222v7.68H3.512V7.095Zm-1.29,10.08a9.851,9.851,0,0,0,1.559-.12,3.623,3.623,0,0,0,1.321-.465,2.548,2.548,0,0,0,.915-.975,3.437,3.437,0,0,0,.344-1.65,3.442,3.442,0,0,0-.344-1.65,2.548,2.548,0,0,0-.915-.975,3.642,3.642,0,0,0-1.321-.465,9.851,9.851,0,0,0-1.559-.12H8.222v6.42Z"/>
    <path id="패스_321" data-name="패스 321" d="M22.411,17.4a7.093,7.093,0,0,1,4.14-4.23,8.86,8.86,0,0,1,3.3-.585,8.975,8.975,0,0,1,3.314.585,7.064,7.064,0,0,1,4.155,4.23,9.521,9.521,0,0,1,.571,3.375,9.394,9.394,0,0,1-.571,3.36A7.289,7.289,0,0,1,35.7,26.7a7.047,7.047,0,0,1-2.535,1.635,9.207,9.207,0,0,1-3.314.57,9.089,9.089,0,0,1-3.3-.57,7.073,7.073,0,0,1-2.52-1.635,7.289,7.289,0,0,1-1.62-2.565,9.394,9.394,0,0,1-.57-3.36A9.521,9.521,0,0,1,22.411,17.4Zm3.87,5.19a4.835,4.835,0,0,0,.615,1.59,3.276,3.276,0,0,0,1.155,1.125,3.527,3.527,0,0,0,1.8.42,3.609,3.609,0,0,0,1.814-.42,3.238,3.238,0,0,0,1.17-1.125,4.835,4.835,0,0,0,.615-1.59,9.076,9.076,0,0,0,.18-1.815,9.308,9.308,0,0,0-.18-1.83,4.669,4.669,0,0,0-.615-1.59,3.429,3.429,0,0,0-1.17-1.125,3.508,3.508,0,0,0-1.814-.435,3.429,3.429,0,0,0-1.8.435A3.473,3.473,0,0,0,26.9,17.355a4.669,4.669,0,0,0-.615,1.59,9.308,9.308,0,0,0-.179,1.83A9.076,9.076,0,0,0,26.281,22.59Z"/>
    <path id="패스_322" data-name="패스 322" d="M43.951,13.005v2.88h.061a5.179,5.179,0,0,1,.809-1.335,5.357,5.357,0,0,1,1.17-1.05,5.717,5.717,0,0,1,1.41-.675,5.118,5.118,0,0,1,1.56-.24,3.334,3.334,0,0,1,.931.15v3.96q-.3-.06-.721-.1a7.608,7.608,0,0,0-.81-.045,4.539,4.539,0,0,0-1.98.39A3.429,3.429,0,0,0,45.076,18a4.27,4.27,0,0,0-.705,1.575,8.573,8.573,0,0,0-.21,1.95v6.99H39.9V13.005Z"/>
    <path id="패스_323" data-name="패스 323" d="M59.341,13.005v2.85h-3.12v7.68a2.085,2.085,0,0,0,.36,1.44,2.085,2.085,0,0,0,1.44.36q.36,0,.69-.03a5.719,5.719,0,0,0,.63-.09v3.3a10.14,10.14,0,0,1-1.2.12q-.661.03-1.29.031a12.275,12.275,0,0,1-1.875-.136A4.42,4.42,0,0,1,53.416,28a2.764,2.764,0,0,1-1.064-1.11A3.951,3.951,0,0,1,51.961,25v-9.15h-2.58v-2.85h2.58V8.355h4.26v4.65Z"/>
    <path id="패스_324" data-name="패스 324" d="M59.011,15.855v-2.85h2.55v-1.2a4.643,4.643,0,0,1,1.29-3.39,5.226,5.226,0,0,1,3.9-1.32q.57,0,1.14.045T69,7.215V10.4a13.109,13.109,0,0,0-1.561-.09,1.634,1.634,0,0,0-1.245.4,1.99,1.99,0,0,0-.375,1.365v.93h2.941v2.85H65.82v12.66H61.561V15.855Z"/>
    <path id="패스_325" data-name="패스 325" d="M69.96,17.4a7.093,7.093,0,0,1,4.14-4.23,8.859,8.859,0,0,1,3.3-.585,8.976,8.976,0,0,1,3.315.585A7.064,7.064,0,0,1,84.87,17.4a9.521,9.521,0,0,1,.57,3.375,9.394,9.394,0,0,1-.57,3.36A7.289,7.289,0,0,1,83.25,26.7a7.047,7.047,0,0,1-2.535,1.635,9.208,9.208,0,0,1-3.315.57,9.087,9.087,0,0,1-3.3-.57A7.073,7.073,0,0,1,71.58,26.7a7.289,7.289,0,0,1-1.62-2.565,9.394,9.394,0,0,1-.57-3.36A9.521,9.521,0,0,1,69.96,17.4Zm3.87,5.19a4.835,4.835,0,0,0,.615,1.59A3.267,3.267,0,0,0,75.6,25.305a3.526,3.526,0,0,0,1.8.42,3.61,3.61,0,0,0,1.815-.42,3.238,3.238,0,0,0,1.17-1.125A4.835,4.835,0,0,0,81,22.59a9.076,9.076,0,0,0,.18-1.815,9.308,9.308,0,0,0-.18-1.83,4.669,4.669,0,0,0-.615-1.59,3.429,3.429,0,0,0-1.17-1.125A3.51,3.51,0,0,0,77.4,15.8a3.428,3.428,0,0,0-1.8.435,3.464,3.464,0,0,0-1.155,1.125,4.669,4.669,0,0,0-.615,1.59,9.308,9.308,0,0,0-.18,1.83A9.076,9.076,0,0,0,73.83,22.59Z"/>
    <path id="패스_326" data-name="패스 326" d="M91.83,7.095v21.42H87.57V7.095Z"/>
    <path id="패스_327" data-name="패스 327" d="M94.561,10.6V7.095H98.82V10.6Zm4.259,2.4v15.51H94.561V13.005Z"/>
    <path id="패스_328" data-name="패스 328" d="M101.52,17.4a7.1,7.1,0,0,1,4.139-4.23,8.864,8.864,0,0,1,3.3-.585,8.971,8.971,0,0,1,3.314.585,7.062,7.062,0,0,1,4.156,4.23,9.521,9.521,0,0,1,.57,3.375,9.394,9.394,0,0,1-.57,3.36,7.289,7.289,0,0,1-1.62,2.565,7.051,7.051,0,0,1-2.536,1.635,9.2,9.2,0,0,1-3.314.57,9.093,9.093,0,0,1-3.3-.57A7.078,7.078,0,0,1,103.14,26.7a7.261,7.261,0,0,1-1.62-2.565,9.394,9.394,0,0,1-.571-3.36A9.521,9.521,0,0,1,101.52,17.4Zm3.87,5.19A4.835,4.835,0,0,0,106,24.18a3.273,3.273,0,0,0,1.154,1.125,3.53,3.53,0,0,0,1.8.42,3.606,3.606,0,0,0,1.814-.42,3.23,3.23,0,0,0,1.17-1.125,4.858,4.858,0,0,0,.616-1.59,9.076,9.076,0,0,0,.179-1.815,9.307,9.307,0,0,0-.179-1.83,4.691,4.691,0,0,0-.616-1.59,3.421,3.421,0,0,0-1.17-1.125,3.506,3.506,0,0,0-1.814-.435,3.432,3.432,0,0,0-1.8.435A3.47,3.47,0,0,0,106,17.355a4.669,4.669,0,0,0-.615,1.59,9.308,9.308,0,0,0-.18,1.83A9.076,9.076,0,0,0,105.39,22.59Z"/>
  </g>
</svg>
